<?xml version="1.0" standalone="no"?>
<!DOCTYPE svg PUBLIC "-//W3C//DTD SVG 20010904//EN"
 "http://www.w3.org/TR/2001/REC-SVG-20010904/DTD/svg10.dtd">
<svg version="1.0" xmlns="http://www.w3.org/2000/svg"
 width="16.000000pt" height="16.000000pt" viewBox="0 0 16.000000 16.000000"
 preserveAspectRatio="xMidYMid meet">
<metadata>
Created by potrace 1.11, written by Peter Selinger 2001-2013
</metadata>
<g transform="translate(0.000000,16.000000) scale(0.008000,-0.008000)"
fill="#000000" stroke="none">
<path d="M968 1803 c12 -2 32 -2 45 0 12 2 2 4 -23 4 -25 0 -35 -2 -22 -4z"/>
<path d="M1113 1803 c15 -2 37 -2 50 0 12 2 0 4 -28 4 -27 0 -38 -2 -22 -4z"/>
<path d="M820 1785 c-60 -17 -31 -18 45 -1 37 9 49 14 30 14 -16 0 -50 -6 -75
-13z"/>
<path d="M1215 1794 c174 -37 311 -109 431 -228 73 -73 115 -133 160 -229 18
-40 33 -66 34 -58 0 18 -52 120 -94 182 -40 60 -114 139 -164 176 -20 16 -39
31 -42 34 -3 4 -39 24 -80 46 -89 46 -196 83 -236 82 -20 -1 -23 -3 -9 -5z"/>
<path d="M690 1745 c-33 -19 -21 -19 21 0 19 8 27 14 19 14 -8 0 -26 -6 -40
-14z"/>
<path d="M545 1659 c-20 -18 -34 -34 -31 -36 3 -3 21 11 41 31 44 44 38 47
-10 5z"/>
<path d="M490 1589 c-6 -11 -10 -27 -8 -35 2 -8 8 1 14 20 12 40 10 46 -6 15z"/>
<path d="M480 1485 c0 -14 4 -25 9 -25 4 0 6 11 3 25 -2 14 -6 25 -8 25 -2 0
-4 -11 -4 -25z"/>
<path d="M500 1443 c0 -33 170 -143 246 -158 25 -4 24 -3 -6 8 -86 34 -168 83
-202 121 -21 22 -38 36 -38 29z"/>
<path d="M790 1270 c8 -5 27 -10 42 -10 15 0 38 -5 52 -11 33 -15 17 -31 -59
-58 -31 -11 -75 -32 -98 -46 -23 -14 -51 -31 -62 -38 -11 -6 -24 -18 -28 -24
-15 -24 -42 -12 -71 31 -94 140 -314 158 -436 36 -49 -49 -70 -98 -70 -164 1
-92 57 -174 150 -219 38 -19 61 -22 146 -21 l101 1 6 -75 c8 -104 48 -184 141
-276 123 -123 251 -175 441 -181 66 -2 101 -1 77 2 l-43 4 35 39 c87 96 50
280 -84 423 -76 81 -150 125 -234 140 -37 6 -66 16 -66 23 0 49 85 189 157
258 51 50 143 101 199 112 19 3 34 12 34 20 0 11 -19 14 -82 15 -91 0 -126 4
-190 19 -24 5 -50 10 -58 10 -13 0 -13 -1 0 -10z"/>
<path d="M1844 1243 c4 -12 13 -50 21 -85 7 -35 14 -52 14 -38 1 29 -24 129
-35 139 -3 3 -3 -4 0 -16z"/>
<path d="M1883 1005 c0 -44 2 -61 4 -37 2 23 2 59 0 80 -2 20 -4 1 -4 -43z"/>
<path d="M1871 900 c-1 -14 -4 -36 -6 -50 l-6 -25 11 25 c6 13 9 36 7 50 l-4
25 -2 -25z"/>
<path d="M1851 808 c0 -9 -4 -25 -7 -35 -5 -17 -5 -17 6 0 6 10 9 25 7 35 -4
15 -5 15 -6 0z"/>
<path d="M1795 665 c-22 -46 -37 -81 -32 -78 12 7 78 144 75 153 -2 5 -21 -29
-43 -75z"/>
<path d="M1719 538 c-39 -55 -91 -107 -159 -158 -101 -75 -179 -110 -330 -149
-22 -6 -27 -10 -14 -10 27 -1 144 34 204 62 111 51 260 173 312 256 26 41 16
40 -13 -1z"/>
</g>
</svg>
